<svg xmlns="http://www.w3.org/2000/svg" viewBox="0 0 100 100">
<ellipse cx="50" cy="48.0" rx="34.0" ry="18.0" fill="#90A4AE"/>
<circle cx="30.0" cy="40.0" r="16.0" fill="#90A4AE"/>
<circle cx="52.0" cy="30.0" r="22.0" fill="#90A4AE"/>
<circle cx="74.0" cy="38.0" r="15.0" fill="#90A4AE"/>
<line x1="29.0" y1="76.0" x2="47.0" y2="76.0" stroke="#81D4FA" stroke-width="2.4" stroke-linecap="round"/>
<line x1="29.0" y1="72.8" x2="29.0" y2="79.2" stroke="#81D4FA" stroke-width="1.6" stroke-linecap="round"/>
<line x1="47.0" y1="72.8" x2="47.0" y2="79.2" stroke="#81D4FA" stroke-width="1.6" stroke-linecap="round"/>
<line x1="33.5" y1="68.2" x2="42.5" y2="83.8" stroke="#81D4FA" stroke-width="2.4" stroke-linecap="round"/>
<line x1="36.3" y1="66.6" x2="30.7" y2="69.8" stroke="#81D4FA" stroke-width="1.6" stroke-linecap="round"/>
<line x1="45.3" y1="82.2" x2="39.7" y2="85.4" stroke="#81D4FA" stroke-width="1.6" stroke-linecap="round"/>
<line x1="42.5" y1="68.2" x2="33.5" y2="83.8" stroke="#81D4FA" stroke-width="2.4" stroke-linecap="round"/>
<line x1="45.3" y1="69.8" x2="39.7" y2="66.6" stroke="#81D4FA" stroke-width="1.6" stroke-linecap="round"/>
<line x1="36.3" y1="85.4" x2="30.7" y2="82.2" stroke="#81D4FA" stroke-width="1.6" stroke-linecap="round"/>
<line x1="53.0" y1="76.0" x2="71.0" y2="76.0" stroke="#81D4FA" stroke-width="2.4" stroke-linecap="round"/>
<line x1="53.0" y1="72.8" x2="53.0" y2="79.2" stroke="#81D4FA" stroke-width="1.6" stroke-linecap="round"/>
<line x1="71.0" y1="72.8" x2="71.0" y2="79.2" stroke="#81D4FA" stroke-width="1.6" stroke-linecap="round"/>
<line x1="57.5" y1="68.2" x2="66.5" y2="83.8" stroke="#81D4FA" stroke-width="2.4" stroke-linecap="round"/>
<line x1="60.3" y1="66.6" x2="54.7" y2="69.8" stroke="#81D4FA" stroke-width="1.6" stroke-linecap="round"/>
<line x1="69.3" y1="82.2" x2="63.7" y2="85.4" stroke="#81D4FA" stroke-width="1.6" stroke-linecap="round"/>
<line x1="66.5" y1="68.2" x2="57.5" y2="83.8" stroke="#81D4FA" stroke-width="2.4" stroke-linecap="round"/>
<line x1="69.3" y1="69.8" x2="63.7" y2="66.6" stroke="#81D4FA" stroke-width="1.6" stroke-linecap="round"/>
<line x1="60.3" y1="85.4" x2="54.7" y2="82.2" stroke="#81D4FA" stroke-width="1.6" stroke-linecap="round"/>
</svg>
