<svg xmlns="http://www.w3.org/2000/svg" viewBox="0 0 100 100">
<ellipse cx="50" cy="48.0" rx="34.0" ry="18.0" fill="#90A4AE"/>
<circle cx="30.0" cy="40.0" r="16.0" fill="#90A4AE"/>
<circle cx="52.0" cy="30.0" r="22.0" fill="#90A4AE"/>
<circle cx="74.0" cy="38.0" r="15.0" fill="#90A4AE"/>
<path d="M38 70 C31.0 80.0 31.0 88.0 38 92.0 C45.0 88.0 45.0 80.0 38 70 Z" fill="#2196F3"/>
<line x1="55.5" y1="76.0" x2="72.5" y2="76.0" stroke="#81D4FA" stroke-width="2.3" stroke-linecap="round"/>
<line x1="55.5" y1="73.0" x2="55.5" y2="79.0" stroke="#81D4FA" stroke-width="1.5" stroke-linecap="round"/>
<line x1="72.5" y1="73.0" x2="72.5" y2="79.0" stroke="#81D4FA" stroke-width="1.5" stroke-linecap="round"/>
<line x1="59.7" y1="68.6" x2="68.3" y2="83.4" stroke="#81D4FA" stroke-width="2.3" stroke-linecap="round"/>
<line x1="62.4" y1="67.1" x2="57.1" y2="70.1" stroke="#81D4FA" stroke-width="1.5" stroke-linecap="round"/>
<line x1="70.9" y1="81.9" x2="65.6" y2="84.9" stroke="#81D4FA" stroke-width="1.5" stroke-linecap="round"/>
<line x1="68.3" y1="68.6" x2="59.7" y2="83.4" stroke="#81D4FA" stroke-width="2.3" stroke-linecap="round"/>
<line x1="70.9" y1="70.1" x2="65.6" y2="67.1" stroke="#81D4FA" stroke-width="1.5" stroke-linecap="round"/>
<line x1="62.4" y1="84.9" x2="57.1" y2="81.9" stroke="#81D4FA" stroke-width="1.5" stroke-linecap="round"/>
</svg>
